<?xml version="1.0" encoding="UTF-8"?>
<svg width="100" height="100" viewBox="0 0 100 100" fill="none" xmlns="http://www.w3.org/2000/svg">
  <!-- Background circle -->
  <circle cx="50" cy="50" r="45" fill="#009645"/>
  
  <!-- Kaaba cube with 3D effect -->
  <path d="M65 30H35V70H65V30Z" fill="#111111"/>
  
  <!-- Kaaba front face details -->
  <path d="M35 30L42 35H58L65 30H35Z" fill="#333333"/>
  <path d="M35 70L42 65H58L65 70H35Z" fill="#333333"/>
  
  <!-- Door of Kaaba -->
  <rect x="46" y="45" width="8" height="15" fill="#BE9B3E"/>
  
  <!-- Kiswah fabric pattern (simplified) -->
  <line x1="50" y1="35" x2="50" y2="65" stroke="#BE9B3E" stroke-width="0.5"/>
  <line x1="42" y1="35" x2="42" y2="65" stroke="#BE9B3E" stroke-width="0.5"/>
  <line x1="58" y1="35" x2="58" y2="65" stroke="#BE9B3E" stroke-width="0.5"/>
  
  <line x1="42" y1="40" x2="58" y2="40" stroke="#BE9B3E" stroke-width="0.5"/>
  <line x1="42" y1="45" x2="58" y2="45" stroke="#BE9B3E" stroke-width="0.5"/>
  <line x1="42" y1="55" x2="58" y2="55" stroke="#BE9B3E" stroke-width="0.5"/>
  <line x1="42" y1="60" x2="58" y2="60" stroke="#BE9B3E" stroke-width="0.5"/>
  
  <!-- Decorative border for the circle -->
  <circle cx="50" cy="50" r="45" stroke="#FFFFFF" stroke-width="2" fill="none"/>
</svg> 